<svg width="74.052" height="96" version="1.1" viewBox="0 0 19.593 25.4" xmlns="http://www.w3.org/2000/svg">
 <g transform="translate(-16.27 -61.332)">
  <g transform="matrix(.21338 0 0 .21338 -261.22 182.37)" style="fill:#f00;stroke-miterlimit:10;stroke-width:.99956">
   <g transform="matrix(2.2097 0 0 2.2097 3216.2 3155.9)" style="fill:#f00;stroke-miterlimit:10;stroke-width:.45235">
    <path d="m-849.08-1684.9c-2.0065-0.01-3.4195 0.056-2.8954 0.1625 1.0157 0.2053 3.6576 0.6032 5.1997 0.7829 2.5485 0.2971 3.8727 0.7035 6.3686 1.9552 2.0311 1.0187 2.9286 1.6931 2.6696 2.0051-0.24892 0.3-0.8147 0.1592-2.9249-0.7271-3.0088-1.2639-4.5638-1.7201-7.4631-2.19-2.5791-0.418-4.7067-0.295-7.5985 0.4392-0.95507 0.2427-0.76013 0.2908 1.6795 0.4165 3.5985 0.1855 6.4265 0.6768 8.969 1.5576 2.3447 0.8123 5.2365 1.7775 6.55 2.1865 1.3682 0.426 1.9873 0.8176 2.6598 1.6825 0.26538 0.3413 1.2267 1.3869 2.1363 2.3233 2.5601 2.6363 3.2265 3.5518 2.5792 3.5446-0.34523 0-0.94371-0.4921-3.314-2.7069-1.2011-1.1221-2.4941-2.2749-2.8738-2.5615-1.2029-0.9083-2.6522-1.474-4.7687-1.8624-0.59272-0.1087-1.1973-0.3262-2.1089-0.758-1.6859-0.7988-2.4091-1.0639-3.8556-1.4134-1.5705-0.3797-2.8366-0.5628-4.8669-0.7043-1.978-0.1381-2.3675-0.078-4.8705 0.7461l-1.633 0.5374 0.83304 0.1267c0.53189 0.081 1.7256 0.1204 3.3021 0.109 2.5067-0.019 3.9487 0.072 5.4808 0.3461 2.6959 0.4813 4.8002 1.4856 4.8002 2.291 0 0.3302-0.18812 0.3612-0.80719 0.1318-1.6653-0.617-3.1392-1.0822-3.8644-1.2187-1.4697-0.2767-3.3409-0.3783-4.8064-0.2614-2.0692 0.1651-2.5 0.2836-3.2722 0.9017-0.22 0.1762-0.78255 0.5141-1.25 0.7509-0.46749 0.2365-1.1648 0.6527-1.5498 0.925-0.87241 0.6167-2.5082 2.0672-2.8773 2.5519l-0.27699 0.3638 0.27699-0.1209c0.15237-0.067 0.73866-0.3829 1.3028-0.7025 1.0533-0.5966 3.844-1.9259 5.0555-2.4085 2.0892-0.8324 4.7527-1.0517 7.2187-0.5937 0.44001 0.082 1.3178 0.3558 1.9503 0.6085 1.0926 0.4371 1.2122 0.4625 2.3998 0.5178 0.76351 0.036 1.3475 0.1119 1.5002 0.1955 0.41955 0.2297 4.3923 2.9067 5.3501 3.6055 0.98766 0.7202 3.973 3.1605 5.1372 4.1987 2.0251 1.806 5.0346 6.0301 6.2275 8.741 0.65103 1.4796 0.93773 2.6395 1.3952 5.6415 0.22058 1.4475 0.32499 0.9673 0.24961-1.1502v0c-0.15918-4.472-0.57148-6.0026-2.4784-9.194-1.9062-3.1901-2.842-4.3206-4.7583-5.7494-0.75491-0.5627-2.2768-1.7513-3.3822-2.641-1.1054-0.8898-2.7326-2.0945-3.6158-2.6776-1.784-1.1772-2.2504-1.5796-2.2045-1.9011 0.052-0.3646 0.71642-0.2683 1.8144 0.2625 1.2524 0.6056 2.4349 1.4147 4.0024 2.739 3.1013 2.6193 3.6627 3.012 4.9749 3.4787 0.25379 0.09 0.62876 0.3313 0.83354 0.5358 0.81698 0.8162 2.1218 2.885 3.5688 5.6586 0.54899 1.0523 1.1355 2.0484 1.3033 2.2133 0.23177 0.228 0.27866 0.2484 0.19584 0.085-0.0599-0.118-0.46461-1.288-0.89969-2.5998-0.43508-1.3121-1.1157-3.1506-1.5126-4.0857-0.39687-0.935-0.80684-1.9624-0.91104-2.2836-0.22727-0.7004-0.25328-1.6888-0.0486-1.8587 0.0825-0.068 0.16483-0.079 0.19843-0.024 0.0316 0.051 0.17124 0.1151 0.31004 0.1415 0.20434 0.039 0.23061 0.021 0.13901-0.088-0.0622-0.075-0.18642-0.1371-0.27593-0.1384-0.10784 0-0.35428-0.3982-0.73073-1.1753-0.31247-0.6448-0.83558-1.525-1.1622-1.9558-1.4072-1.856-2.4451-2.8085-4.2674-3.9166-0.70855-0.4308-1.2868-0.8972-2.0505-1.6537-1.4439-1.4298-2.8636-2.327-5.0658-3.2017-1.918-0.762-2.2344-0.8168-5.2359-0.9004-0.75091-0.021-1.4856-0.033-2.1544-0.036zm-9.3519 6.7837c-0.40031-0.056-1.3463 0.3587-2.5078 1.1313-0.37732 0.2509-0.68575 0.467-0.68575 0.4805 0 0.07 0.89228-0.1926 1.8361-0.5395 1.1648-0.4283 1.5637-0.6463 1.5637-0.8559 0-0.1267-0.0727-0.1979-0.20619-0.2164zm23.929 0.4299c0.19608-0.026 0.52462 0.091 0.96274 0.3487 0.84145 0.4951 2.8914 2.5742 3.4163 3.465 0.50863 0.8634 0.62899 1.5714 0.35658 2.0982-0.25104 0.4855-0.49179 0.4122-0.68834-0.2088-0.3256-1.029-0.86241-1.7608-2.6024-3.5486-1.308-1.3441-1.6744-1.778-1.6495-1.9523 0.0169-0.1196 0.087-0.1866 0.20463-0.2022zm-17.511 2.3342c-0.86439 0.01-1.7417 0.057-2.2655 0.1418-1.87 0.3032-3.8114 1.0313-6.3469 2.3802-1.3222 0.7032-1.383 0.7506-2.9502 2.3021-1.0566 1.0462-1.5149 1.56-1.3498 1.5137 0.13748-0.039 0.97002-0.4284 1.85-0.8662v0c0.87998-0.4379 2.3008-1.1975 3.1574-1.6883 3.2061-1.8363 5.0978-2.3501 9.1162-2.4758 1.876-0.059 2.1982-0.092 2.3487-0.2423 0.35769-0.3577-0.24979-0.7848-1.3725-0.9649-0.47162-0.076-1.3231-0.1077-2.1875-0.1zm5.4126 1.7684c-0.57795-0.01-1.1467 0.084-1.8252 0.2744-0.3025 0.085-1.4495 0.2225-2.5492 0.3048-2.7368 0.2053-3.7763 0.3808-5.4007 0.9123-1.149 0.376-2.0434 0.8504-2.7146 1.4396-0.68969 0.6056-1.2363 0.8911-2.9719 1.5534-1.1001 0.4196-1.3895 0.5789-1.9999 1.0993-0.39254 0.3344-0.97833 0.9104-1.3017 1.2798-0.54816 0.6265-0.5684 0.667-0.30178 0.6001 0.15729-0.04 0.87421-0.3575 1.5932-0.7065 1.3375-0.6492 2.5192-0.9932 2.9993-0.8728 0.1374 0.035 0.86802-0.052 1.6237-0.1921 2.3976-0.445 5.5427-0.9705 6.474-1.0822 1.1905-0.1426 4.4819-0.049 5.3997 0.154 3.8695 0.8552 7.3738 3.474 9.4227 7.0419 0.26244 0.457 0.80232 1.3251 1.1994 1.9291 0.81756 1.2438 1.1393 2.1069 1.3901 3.7296 0.0931 0.6019 0.26197 1.2329 0.41804 1.5605 0.54031 1.1342 0.40413 2.5257-0.4723 4.8276-1.1718 3.0776-1.6779 3.9542-4.177 7.2297-0.45066 0.5906-0.96364 1.3483-1.1395 1.6835-0.17584 0.3353-0.50377 0.8793-0.72914 1.2092s-0.56848 0.9152-0.76224 1.3002c-0.30104 0.5982-0.42465 0.7384-0.84904 0.9678-0.59569 0.322-1.7666 0.6284-3.0184 0.7887-2.3707 0.3038-6.2454-0.4932-9.0217-1.8558-2.609-1.2803-4.1471-2.7027-5.0596-4.6775-0.38304-0.8292-1.0067-2.9456-1.3622-4.6236-0.33915-1.6008-0.341-3.9733-5e-3 -5.0499 0.47519-1.5195 1.3225-2.9188 2.4582-4.0608 1.6898-1.6989 3.7679-2.5429 6.657-2.7027 1.3623-0.075 2.351 0.04 4.4664 0.5199 0.97025 0.2201 1.7761 0.3437 2.2381 0.3437 0.69006 0 0.736 0.016 1.0392 0.3365 0.85539 0.907 1.4562 2.6647 1.4562 4.2601 0 1.0218-0.30539 3.7544-0.55449 4.9604-0.63336 3.0663-2.0829 5.0051-4.3476 5.8148-0.95059 0.3397-2.6543 0.4275-3.761 0.1942-1.8467-0.3895-4.2611-1.8844-5.5702-3.4494-1.5445-1.8465-1.6377-4.9763-0.21706-7.2668 0.9629-1.5523 2.4259-2.6273 4.3145-3.1702 1.0875-0.3128 3.308-0.3136 4.4504 0 1.5334 0.4185 2.5922 1.1414 3.1368 2.142 0.23201 0.4263 0.29538 0.685 0.3302 1.3486l0.0434 0.8213-0.26821 0.067c-0.50591 0.1267-1.1366-0.031-2.1709-0.5437-1.6936-0.8398-2.8431-0.9996-4.0855-0.5681-0.97063 0.3374-1.9587 1.361-2.2097 2.2889-0.0618 0.2286-0.0924 0.7337-0.0677 1.1224 0.075 1.1808 0.72419 2.1058 1.8635 2.6551 0.63889 0.3082 1.7781 0.3212 2.4138 0.027 1.2908-0.5969 1.8128-2.0198 1.1395-3.107-0.5474-0.8837-1.6922-1.2115-2.3368-0.6691-0.2609 0.2196-0.30789 0.3238-0.28265 0.6252 0.0259 0.3114 0.0682 0.3662 0.30488 0.3934 0.15126 0.016 0.27543-0.016 0.27543-0.075 0-0.2016 0.39518-0.1064 0.55192 0.1328 0.35774 0.5459-0.15179 1.1605-0.96224 1.1605-0.39394 0-0.54599-0.054-0.82423-0.2993-0.44894-0.3939-0.60182-0.7884-0.54311-1.3993 0.0679-0.7073 0.43778-1.2182 1.125-1.5545 0.4934-0.2413 0.6417-0.2669 1.2857-0.2257 0.8695 0.056 1.7415 0.4697 2.421 1.1494 0.59188 0.5919 0.78465 1.1388 0.72348 2.0534-0.058 0.8679-0.32366 1.483-0.93379 2.1617-1.5503 1.7243-4.3484 1.6795-6.2012-0.1-1.4354-1.3782-1.7873-3.1803-0.96067-4.9194 0.71197-1.498 2.191-2.482 3.9548-2.631 1.386-0.1172 2.6143 0.2522 4.1537 1.2496 0.92049 0.5964 1.2693 0.5234 0.92811-0.1939-0.4195-0.8819-1.7382-1.7947-3.1187-2.159-0.8812-0.2323-2.6287-0.2291-3.4913 0.011-1.4642 0.4003-2.7684 1.2946-3.5445 2.4304-1.539 2.2524-1.3384 4.9827 0.51004 6.9422 1.1262 1.1938 2.4854 1.9571 4.0028 2.2473 0.93086 0.1781 1.3924 0.176 2.2728-0.01 2.989-0.6303 4.7762-3.5433 4.3548-7.0988l-0.12507-1.0552 0.262-0.2061c0.84126-0.662 0.78298-2.2942-0.12917-3.62-0.41985-0.6101-0.97645-0.9795-2.0459-1.3571-1.5078-0.532-2.7372-0.744-4.3165-0.7434-2.8844 0-4.9803 0.8326-6.7231 2.6675-0.86204 0.9073-1.4235 1.8468-1.8402 3.0792-0.2695 0.7972-0.32281 1.1195-0.36123 2.1849-0.0536 1.4878 0.15097 2.6591 0.76274 4.3683 0.30041 0.8393 0.38727 1.229 0.38706 1.7367 0 1.0647 0.65886 2.1665 1.9746 3.2997 2.9927 2.5773 8.4638 3.8671 11.671 2.7516 1.4962-0.5201 2.3537-1.2567 4.0287-3.4613 0.56639-0.7453 1.3777-1.7578 1.803-2.25 0.78766-0.9112 1.6395-2.1349 2.0505-2.9448 0.29869-0.5887 1.6395-3.8269 2.0081-4.8501 0.34829-0.9662 0.37697-2.0941 0.0579-2.2891-0.25826-0.1577-0.40355 0.077-0.7638 1.2361-0.29636 0.9541-0.58055 1.3922-0.81079 1.2502-0.16611-0.1027-0.0459-1.0354 0.31263-2.4257 0.33314-1.292 0.37473-2.2665 0.14367-3.3571-0.18807-0.8877-0.42995-1.3044-0.78084-1.3456-0.39677-0.047-0.47056 0.2606-0.46974 1.9626 0 0.8078-0.0526 2.126-0.11832 2.929-0.10562 1.2914-0.10023 1.5488 0.0491 2.2283 0.15541 0.7072 0.15668 0.8287 0.0124 1.5272-0.49908 2.4161-1.8906 4.8074-2.8939 4.9733-0.37153 0.061-0.4496 0.1384-1.0992 1.0795-1.2055 1.7468-2.456 2.934-3.8008 3.6084-2.6055 1.3071-6.6551 0.8152-9.7188-1.18-1.3175-0.8581-3.0832-2.7199-2.8846-3.0414 0.1094-0.177 0.55478-0.1185 0.88831 0.1169 0.17349 0.1223 0.6885 0.5266 1.1446 0.898 1.8141 1.478 3.5514 2.2323 5.7237 2.4847 2.6296 0.3059 4.9742-0.6286 6.5913-2.6273 0.74438-0.9199 1.0484-1.6441 1.5896-3.7817 0.65976-2.6056 0.84748-3.9404 0.84852-6.046 0-2.419-0.32301-4.0875-1.2433-6.4023-1.0534-2.6488-2.9001-4.2633-5.7392-5.0171-0.91503-0.2431-1.1615-0.2656-2.9001-0.2656-1.7419 0-1.9823 0.021-2.8918 0.2662-0.54565 0.146-1.2661 0.3942-1.6004 0.5508-0.69667 0.3263-2.6802 1.651-4.3532 2.9078-1.8588 1.3959-3.8323 3.4822-4.4529 4.7072-0.41679 0.8223-0.81608 2.7273-0.99581 4.7527-0.0342 0.385-0.0878 0.8737-0.11938 1.0856l-0.0574 0.3855 0.21241-0.2122c0.11697-0.1172 0.41764-0.7858 0.66815-1.4859 0.82074-2.2934 1.6831-3.8592 2.9962-5.4404 1.1372-1.3695 3.1303-2.9255 4.6054-3.5951 0.66641-0.3027 0.71319-0.3099 1.4387-0.2162 0.541 0.07 1.1961 0.058 2.3502-0.044 2.6044-0.2291 4.3992 0.027 6.4239 0.9173 0.99301 0.4366 1.326 0.4622 1.326 0.1019 0-0.3697-0.7431-1.0443-1.6226-1.4732-1.19-0.5805-2.1201-0.7885-3.7775-0.8462-1.5311-0.053-2.3336 0.029-3.8256 0.3919-0.48165 0.1169-0.90318 0.1854-0.93689 0.1518-0.16573-0.1656 0.0974-0.5826 0.52658-0.8339 1.4102-0.8266 4.3741-1.0406 6.6363-0.4797 1.6567 0.4111 3.278 1.5044 3.7796 2.5482 0.39775 0.8276 0.47707 1.841 0.15399 1.9648-0.0767 0.029-0.30684-0.06-0.5116-0.1979-0.20476-0.1381-0.58756-0.2813-0.85111-0.3183-0.26353-0.037-1.006-0.2157-1.65-0.3974-1.6589-0.4681-2.4873-0.5908-3.9713-0.5866-2.2224 0.011-4.2922 0.3236-5.4136 0.83-2.2004 0.9938-4.3965 3.3668-5.5066 5.9499-0.67569 1.5725-0.86624 2.906-0.5855 4.1 0.0776 0.33 0.28012 1.3571 0.45011 2.2821 0.82704 4.5003 2.4952 7.511 5.1423 9.2815 2.6191 1.7521 6.8836 3.2542 10.663 3.7563 2.5919 0.3445 6.3036-0.16 8.5287-1.1594 1.92-0.8625 3.3347-2.1735 5.5904-5.1802 2.4449-3.2587 3.9582-7.0306 4.0137-10.002 0.0151-0.8136-7e-3 -0.9464-0.19018-1.1297-0.20111-0.2011-0.21521-0.2019-0.42838-0.028-0.17354 0.1418-0.32584 0.612-0.71935 2.2185-0.91673 3.7423-2.0977 6.1749-4.3568 8.9736-1.7636 2.1847-3.8488 3.6203-5.6451 3.887-0.57272 0.085-1.2259-0.15-1.1746-0.4228 0.0421-0.2236 0.93559-0.7075 2.2634-1.2255 1.2776-0.4988 1.9613-0.9565 2.8954-1.9402 2.466-2.5966 4.0974-5.7296 5.1692-9.9264 0.19447-0.7615 0.44394-1.7187 0.55398-2.1275 0.23778-0.8835 0.25241-1.6804 0.0527-2.8189-0.29284-1.6698-1.2033-3.8126-1.957-4.6051-0.38886-0.4087-0.68863-0.4823-0.90382-0.223-0.15674 0.1887-0.0543 0.6115 0.59222 2.44 0.62177 1.7587 0.8455 3.0083 0.78753 4.3997-0.1732 4.159-2.7715 9.7187-5.9381 12.705-0.74078 0.6985-1.2707 0.9978-1.449 0.8195-0.16984-0.1696 0.14129-0.6774 1.1777-1.9244 2.2538-2.7117 3.5193-4.9702 4.4721-7.9787 0.90038-2.8435 0.8595-4.2363-0.23564-8.0317-0.2159-0.7483-0.44204-1.6934-0.50281-2.1-0.19333-1.2941-0.82008-2.3553-2.621-4.4397-2.2999-2.6617-5.2715-4.7535-7.9251-5.5785-1.3897-0.4318-2.1504-0.5207-4.3997-0.512-2.3906 0.011-3.6952 0.1567-6.1608 0.6961-1.7217 0.3765-2.1536 0.399-2.327 0.122-0.14837-0.2371 0.0815-0.3947 1.1379-0.7816 1.8354-0.6717 3.8376-1.0215 6.8998-1.2043 3.3141-0.1982 4.6724-0.024 6.6001 0.8392 2.7889 1.2507 5.7856 3.6319 8.5814 6.8191 0.57894 0.6602 1.6186 1.7624 2.3104 2.4501 0.96023 0.954 1.3631 1.4369 1.7027 2.0402 0.85767 1.5229 1.4367 3.2358 1.7611 5.2099 0.10975 0.6678 0.28554 1.2657 0.52917 1.7999l0.36483 0.7999-0.0103 1.3999c-9e-3 1.2173-0.0507 1.552-0.31522 2.5627-0.73266 2.7993-1.9694 5.1433-4.253 8.0584-0.50802 0.6485-1.2446 1.6071-1.6366 2.1302-1.1854 1.5817-2.2501 2.4212-4.3341 3.4174-3.303 1.5787-5.6773 1.7716-9.6025 0.7808-2.2302-0.5631-3.6058-0.9989-5.4813-1.7376-3.585-1.4115-5.2623-2.3603-6.8755-3.8875-2.12-2.0069-2.9557-4.0521-3.529-8.6365-0.18555-1.4838-0.33787-2.0325-0.58703-2.1138-0.376-0.1225 0.23249 3.3496 0.98547 5.6219 1.2565 3.792 3.3743 6.5042 6.6792 8.554 1.4141 0.8771 4.9037 2.5598 6.0131 2.8995 0.57597 0.1765 1.6995 0.5393 2.497 0.8062 2.5634 0.8581 4.3031 1.0197 6.3303 0.5882v0c1.1753-0.25 2.5657-0.8204 4.1124-1.6861 2.6262-1.4701 3.6984-2.3249 4.3966-3.5058 0.26924-0.4553 0.9851-1.4615 1.5906-2.236 2.5461-3.2559 3.9196-5.8787 4.7186-9.0098 0.80534-3.1562 0.71183-5.5388-0.35349-8.9953-0.85238-2.7655-2.7406-5.6333-5.7945-8.8001-3.3729-3.4975-8.2578-7.008-10.795-7.7576-0.71504-0.2111-1.3026-0.3201-1.8805-0.3286zm-4.4876 5.6381c-1.3132-0.01-2.7116 0.1418-4.1874 0.4381-2.675 0.5371-3.7726 0.9829-4.9501 2.0111-0.41248 0.3601-1.4476 1.1888-2.3001 1.8412-1.8412 1.4095-2.2765 1.8024-2.6427 2.3845-0.35851 0.5699-0.87484 1.7796-1.3668 3.2038l-0.39431 1.1422 0.27233-0.2921c0.14973-0.1603 0.55706-0.6683 0.90538-1.129 0.93663-1.2387 1.7247-2.0936 2.7771-3.0133 0.98811-0.8633 3.0866-2.4733 4.1005-3.1462 1.8813-1.248 4.0665-1.9079 6.6988-2.0214 3.5084-0.1513 6.3264 0.8369 8.4538 2.9641 2.3386 2.3387 3.1067 5.0417 2.9652 10.439-0.0625 2.3847-0.18113 3.197-0.75395 5.1658-0.40638 1.3964-0.46871 1.8293-0.31576 2.1987 0.0686 0.1656 0.16018 0.3013 0.20363 0.3013 0.0434 0 0.20296-0.1463 0.35449-0.3252 0.39243-0.4627 1.1823-2.1682 1.4935-3.225 0.23122-0.7855 0.27718-1.1861 0.36224-3.1482 0.0536-1.2367 0.0839-3.5769 0.0672-5.2002l-0.0305-2.9516-0.31162-0.7163c-0.4898-1.1258-1.1876-2.0965-2.3316-3.2432-1.0991-1.1018-2.0638-1.8164-3.2566-2.4122-1.673-0.8359-3.6239-1.2589-5.8126-1.2655zm-10.223 1.116c-0.13894-0.01-0.30597 0.019-0.48422 0.075-0.74874 0.2431-2.1527 1.0131-2.6008 1.4258-0.25098 0.2313-0.66881 0.7353-0.92811 1.1205-0.60497 0.898-1.3128 2.1498-1.216 2.1498 0.0412 0 0.59928-0.4215 1.2402-0.9367 0.64098-0.5148 1.7748-1.352 2.5198-1.8602 1.391-0.9488 1.8546-1.3761 1.8547-1.709 0-0.1611-0.15393-0.2553-0.38552-0.2656z" style="fill-rule:evenodd;fill:#f00;paint-order:stroke fill markers;stop-color:#000000;stroke-linecap:round;stroke-linejoin:round;stroke-miterlimit:10;stroke-width:.45235"/>
   </g>
  </g>
 </g>
</svg>
