<?xml version="1.0" encoding="UTF-8" standalone="no"?>
<!-- Created with Inkscape (http://www.inkscape.org/) -->

<svg
   width="150mm"
   height="150mm"
   viewBox="0 0 150 150"
   version="1.1"
   id="svg350"
   inkscape:version="1.2.2 (b0a8486541, 2022-12-01)"
   sodipodi:docname="fng.svg"
   xmlns:inkscape="http://www.inkscape.org/namespaces/inkscape"
   xmlns:sodipodi="http://sodipodi.sourceforge.net/DTD/sodipodi-0.dtd"
   xmlns="http://www.w3.org/2000/svg"
   xmlns:svg="http://www.w3.org/2000/svg">
  <sodipodi:namedview
     id="namedview352"
     pagecolor="#505050"
     bordercolor="#ffffff"
     borderopacity="1"
     inkscape:showpageshadow="0"
     inkscape:pageopacity="0"
     inkscape:pagecheckerboard="1"
     inkscape:deskcolor="#505050"
     inkscape:document-units="mm"
     showgrid="false"
     inkscape:zoom="0.66586806"
     inkscape:cx="4.5053971"
     inkscape:cy="380.70605"
     inkscape:window-width="1920"
     inkscape:window-height="958"
     inkscape:window-x="0"
     inkscape:window-y="32"
     inkscape:window-maximized="1"
     inkscape:current-layer="layer1" />
  <defs
     id="defs347" />
  <g
     inkscape:label="Layer 1"
     inkscape:groupmode="layer"
     id="layer1"
     transform="translate(-41.349773,-74.151356)">
    <g
       transform="matrix(5.6571489,0,0,5.6571489,-73.724581,-318.66008)"
       style="fill:#8f8f8f"
       id="g4"
       inkscape:export-filename="fng.png"
       inkscape:export-xdpi="84.666664"
       inkscape:export-ydpi="84.666664">
      <path
         d="m 32.542,72.972 c -0.72427,-0.0036 -1.2343,0.02016 -1.0451,0.05865 0.36663,0.07409 1.3202,0.21771 1.8768,0.28258 0.91988,0.10722 1.3979,0.25395 2.2988,0.70574 0.73311,0.3677 1.0571,0.61112 0.96356,0.72373 -0.08984,0.1083 -0.29405,0.05745 -1.0557,-0.26243 -1.0861,-0.4562 -1.6473,-0.62089 -2.6938,-0.79048 -0.93094,-0.15089 -1.6989,-0.10651 -2.7427,0.15852 -0.3447,0.08761 -0.27434,0.10492 0.60624,0.15033 1.2989,0.06691 2.3196,0.24427 3.2374,0.56219 0.84628,0.29323 1.8901,0.64163 2.3642,0.78924 0.4938,0.15376 0.71729,0.29507 0.96003,0.60728 0.09574,0.1232 0.4428,0.5006 0.77106,0.8386 0.92411,0.95157 1.1646,1.282 0.93101,1.2794 -0.12464,0 -0.34065,-0.1776 -1.1962,-0.97705 -0.43354,-0.40503 -0.90024,-0.82112 -1.0373,-0.92457 -0.4342,-0.32784 -0.95733,-0.53203 -1.7212,-0.67223 -0.21394,-0.03923 -0.43216,-0.11776 -0.76121,-0.27361 -0.60855,-0.28834 -0.86964,-0.38401 -1.3917,-0.51016 -0.56693,-0.13704 -1.0239,-0.20312 -1.7567,-0.25422 -0.71396,-0.04988 -0.85457,-0.02818 -1.758,0.26928 l -0.58944,0.19399 0.30076,0.04571 c 0.19192,0.02929 0.62279,0.04349 1.1919,0.03938 0.90476,-0.0069 1.4253,0.02598 1.9783,0.1249 0.97304,0.17374 1.7326,0.53621 1.7326,0.82693 0,0.1192 -0.06788,0.13038 -0.29135,0.04759 -0.60108,-0.22274 -1.1331,-0.39064 -1.3948,-0.43989 -0.5305,-0.09992 -1.2059,-0.13657 -1.7349,-0.09435 -0.74689,0.0596 -0.90238,0.10239 -1.1811,0.32546 -0.07941,0.0636 -0.28248,0.18555 -0.45124,0.27104 -0.16873,0.08536 -0.42042,0.23557 -0.55942,0.33389 -0.31488,0.22259 -0.90532,0.74616 -1.0385,0.92112 l -0.09998,0.13128 0.09998,-0.0436 c 0.05503,-0.0243 0.26664,-0.13823 0.47027,-0.25361 0.38017,-0.2153 1.3874,-0.69512 1.8248,-0.86932 0.75409,-0.30045 1.7154,-0.37961 2.6055,-0.21428 0.15882,0.02958 0.47564,0.12841 0.70395,0.2196 0.39444,0.15779 0.43755,0.16696 0.86626,0.18694 0.27558,0.01289 0.48631,0.04036 0.54144,0.07054 0.15148,0.08293 1.5854,1.0492 1.9311,1.3014 0.35652,0.25995 1.434,1.1408 1.8543,1.5155 0.7309,0.65188 1.8172,2.1766 2.2478,3.1551 0.23496,0.53407 0.33846,0.95272 0.50359,2.0363 0.07963,0.52245 0.1173,0.34915 0.0901,-0.41514 v 0 c -0.05746,-1.6142 -0.20628,-2.1666 -0.8946,-3.3186 -0.68803,-1.1515 -1.0258,-1.5595 -1.7175,-2.0753 -0.27249,-0.20308 -0.82185,-0.63212 -1.2208,-0.95325 -0.39898,-0.32115 -0.98633,-0.75601 -1.3052,-0.96648 -0.64389,-0.42489 -0.81223,-0.57014 -0.7957,-0.6862 0.01896,-0.13159 0.25862,-0.09682 0.65492,0.09475 0.45204,0.21861 0.87885,0.51064 1.4446,0.98866 1.1194,0.9454 1.3221,1.0872 1.7957,1.2556 0.09159,0.03249 0.22697,0.11958 0.30086,0.1934 0.29485,0.29461 0.76583,1.0413 1.2882,2.0425 0.19814,0.37983 0.40989,0.73936 0.47039,0.79888 0.08369,0.0823 0.10062,0.08967 0.0707,0.03068 -0.02164,-0.04259 -0.16771,-0.46487 -0.32473,-0.93838 -0.15704,-0.4736 -0.40272,-1.1372 -0.54598,-1.4747 -0.14326,-0.33749 -0.29121,-0.70835 -0.32884,-0.82428 -0.08205,-0.25278 -0.09141,-0.60957 -0.0175,-0.67087 0.02955,-0.02455 0.05947,-0.02853 0.07156,-0.0087 0.01175,0.01846 0.06181,0.04155 0.11189,0.05109 0.07379,0.01385 0.08329,0.0076 0.05024,-0.03175 -0.02236,-0.0271 -0.06732,-0.04951 -0.09964,-0.04998 -0.0389,0 -0.1279,-0.14372 -0.26377,-0.42421 -0.11276,-0.23275 -0.30161,-0.55048 -0.4195,-0.70599 -0.50787,-0.6699 -0.88254,-1.0137 -1.5403,-1.4137 -0.25577,-0.15551 -0.46448,-0.32385 -0.74014,-0.5969 -0.52119,-0.51608 -1.0336,-0.83991 -1.8286,-1.1556 -0.69228,-0.27507 -0.80649,-0.29483 -1.8899,-0.32502 -0.27106,-0.0076 -0.53621,-0.01175 -0.77759,-0.01289 z m -3.3756,2.4486 c -0.14447,-0.02041 -0.48592,0.12945 -0.9052,0.40829 -0.13618,0.09059 -0.2475,0.16861 -0.2475,0.17344 0,0.02528 0.32205,-0.06951 0.66267,-0.19471 0.42047,-0.15458 0.56448,-0.23326 0.56448,-0.30893 0,-0.04574 -0.02632,-0.07144 -0.07444,-0.0781 z m 8.6373,0.15514 c 0.07073,-0.0094 0.18932,0.03281 0.34745,0.12586 0.30375,0.17872 1.0437,0.92919 1.2331,1.2507 0.18363,0.31163 0.22704,0.56718 0.1287,0.75734 -0.09059,0.17522 -0.1775,0.14878 -0.24843,-0.07538 -0.11751,-0.37142 -0.31128,-0.63557 -0.93937,-1.2809 -0.47212,-0.48514 -0.60434,-0.64177 -0.59537,-0.70472 0.006,-0.04313 0.03141,-0.06732 0.07389,-0.07295 z m -6.3205,0.84254 c -0.31199,0.0039 -0.62867,0.02065 -0.81772,0.05116 -0.67495,0.10945 -1.3757,0.37227 -2.2909,0.85916 -0.47727,0.2538 -0.49922,0.27091 -1.0649,0.83092 -0.38136,0.37762 -0.54681,0.56307 -0.48721,0.54637 0.04964,-0.01386 0.35015,-0.15464 0.66775,-0.31267 v 0 c 0.31765,-0.15804 0.83048,-0.43221 1.1397,-0.60937 1.1573,-0.66282 1.8401,-0.8483 3.2905,-0.89365 0.67714,-0.02139 0.79344,-0.0332 0.84776,-0.08745 0.12909,-0.12911 -0.0902,-0.28326 -0.4954,-0.34828 -0.17024,-0.02744 -0.47761,-0.03886 -0.7896,-0.0361 z m 1.9537,0.63832 c -0.20864,-0.0036 -0.41393,0.03029 -0.65881,0.09899 -0.1092,0.03068 -0.52321,0.08034 -0.92015,0.11002 -0.98786,0.07411 -1.363,0.13745 -1.9494,0.3293 -0.41473,0.13572 -0.73761,0.30696 -0.97982,0.51964 -0.24899,0.21858 -0.44626,0.32166 -1.0727,0.56069 -0.39708,0.15148 -0.50155,0.20896 -0.72186,0.39679 -0.14168,0.1207 -0.35314,0.32859 -0.46983,0.46191 -0.1979,0.22616 -0.20517,0.2408 -0.10895,0.21666 0.05675,-0.01459 0.31556,-0.12904 0.57505,-0.25502 0.48276,-0.23433 0.90931,-0.35851 1.0826,-0.31505 0.04961,0.01238 0.31333,-0.01895 0.58606,-0.06933 0.86541,-0.16061 2.0006,-0.35035 2.3368,-0.39065 0.42968,-0.05143 1.6177,-0.01751 1.949,0.0556 1.3967,0.30868 2.6616,1.254 3.4011,2.5418 0.0947,0.16494 0.28958,0.47829 0.43294,0.69629 0.29505,0.44898 0.41118,0.7605 0.50175,1.3462 0.03352,0.21722 0.09452,0.44499 0.15089,0.56326 0.19501,0.40938 0.14584,0.91164 -0.17048,1.7425 -0.423,1.1109 -0.60563,1.4273 -1.5077,2.6095 -0.1627,0.21321 -0.34784,0.48668 -0.41128,0.6077 -0.06349,0.121 -0.18188,0.31736 -0.26318,0.43644 -0.08138,0.11908 -0.20519,0.33034 -0.27517,0.46935 -0.10868,0.21588 -0.15327,0.26649 -0.30647,0.3493 -0.21499,0.1162 -0.63764,0.2268 -1.0895,0.28469 -0.85576,0.10964 -2.2543,-0.17804 -3.2564,-0.66984 -0.94171,-0.46218 -1.4969,-0.97554 -1.8262,-1.6884 -0.13828,-0.2993 -0.36337,-1.0632 -0.49168,-1.6689 -0.12246,-0.5778 -0.12309,-1.4341 -0.0036,-1.8227 0.17153,-0.54846 0.47737,-1.0536 0.88728,-1.4658 0.60993,-0.61316 1.36,-0.91784 2.4029,-0.97552 0.49171,-0.02705 0.84857,0.01459 1.6121,0.18767 0.3502,0.07946 0.64109,0.12405 0.80785,0.12405 0.24906,0 0.26566,0.0056 0.37509,0.12146 0.30876,0.3274 0.52564,0.96183 0.52564,1.5377 0,0.36884 -0.11025,1.3551 -0.20013,1.7905 -0.22862,1.1067 -0.75185,1.8066 -1.5693,2.0989 -0.34312,0.12258 -0.95811,0.15429 -1.3575,0.07008 -0.66656,-0.14056 -1.5381,-0.68015 -2.0106,-1.2451 -0.5575,-0.66649 -0.59112,-1.7962 -0.07834,-2.6229 0.34757,-0.5603 0.87564,-0.94832 1.5573,-1.1443 0.39256,-0.11292 1.194,-0.11319 1.6064,0 0.55347,0.15104 0.93565,0.41198 1.1322,0.77317 0.08375,0.15388 0.1066,0.24722 0.1192,0.48675 l 0.0153,0.29646 -0.09681,0.02431 c -0.18258,0.04575 -0.41023,-0.01125 -0.7836,-0.19625 -0.61134,-0.30314 -1.0262,-0.36082 -1.4747,-0.20507 -0.35032,0.1218 -0.70698,0.49127 -0.7976,0.82616 -0.02235,0.08254 -0.03317,0.26486 -0.02455,0.40515 0.0271,0.42623 0.26141,0.76007 0.67264,0.95836 0.23061,0.11128 0.6418,0.11596 0.87127,0.0097 0.4659,-0.21542 0.65434,-0.72903 0.4113,-1.1215 -0.19761,-0.31897 -0.61083,-0.43729 -0.84351,-0.2415 -0.09419,0.07926 -0.1111,0.11689 -0.10199,0.2257 0.0094,0.11234 0.02455,0.13215 0.11002,0.14197 0.05461,0.0056 0.09943,-0.0055 0.09943,-0.0271 0,-0.07274 0.14263,-0.03839 0.19919,0.04794 0.12914,0.19707 -0.05484,0.41889 -0.34728,0.41889 -0.14224,0 -0.1971,-0.01944 -0.29753,-0.10804 -0.16205,-0.14214 -0.21725,-0.28455 -0.19605,-0.50505 0.02455,-0.25528 0.15804,-0.43972 0.40605,-0.5611 0.17809,-0.08711 0.23166,-0.09635 0.46407,-0.08146 0.31386,0.02016 0.62862,0.16951 0.87392,0.41483 0.2136,0.2137 0.28316,0.41111 0.26112,0.74123 -0.02115,0.31326 -0.11681,0.53526 -0.33705,0.78024 -0.55957,0.62238 -1.5696,0.60621 -2.2383,-0.0361 -0.51813,-0.49747 -0.64512,-1.1479 -0.34677,-1.7757 0.25699,-0.54068 0.79089,-0.89589 1.4275,-0.94965 0.50029,-0.04231 0.94365,0.09105 1.4994,0.45104 0.33224,0.21525 0.45814,0.18893 0.33501,-0.06997 -0.15142,-0.31833 -0.62743,-0.64782 -1.1257,-0.77932 -0.31807,-0.08385 -0.94882,-0.0827 -1.2602,0.0039 -0.52848,0.14443 -0.99926,0.46726 -1.2794,0.87722 -0.55551,0.813 -0.48308,1.7985 0.18407,2.5058 0.40652,0.43087 0.8971,0.70642 1.4449,0.81118 0.33595,0.06427 0.50255,0.06354 0.8203,-0.0036 1.0789,-0.2275 1.7239,-1.279 1.5719,-2.5623 l -0.04514,-0.3809 0.09459,-0.07439 c 0.30365,-0.2389 0.28258,-0.82805 -0.04666,-1.3066 -0.15152,-0.22021 -0.35244,-0.35358 -0.73846,-0.48984 -0.54423,-0.19207 -0.98794,-0.26856 -1.558,-0.26834 -1.0411,0 -1.7976,0.30052 -2.4267,0.9628 -0.31112,0.32752 -0.51383,0.66661 -0.66423,1.1114 -0.09729,0.28776 -0.1165,0.40408 -0.1304,0.78865 -0.01944,0.53704 0.05451,0.95979 0.27531,1.5768 0.10842,0.30292 0.13981,0.44358 0.13974,0.62682 0,0.38432 0.23781,0.78199 0.71274,1.191 1.0802,0.93026 3.055,1.3958 4.2127,0.99316 0.54005,-0.18772 0.84951,-0.4536 1.4541,-1.2493 0.20444,-0.26902 0.49732,-0.63446 0.65081,-0.81213 0.28428,-0.3289 0.59175,-0.77059 0.74014,-1.0629 0.1078,-0.2125 0.59175,-1.3813 0.72482,-1.7507 0.12568,-0.34876 0.13606,-0.75584 0.02091,-0.82625 -0.09319,-0.05689 -0.14564,0.02779 -0.27568,0.44616 -0.10695,0.34439 -0.20954,0.50252 -0.29264,0.45129 -0.05999,-0.03709 -0.01677,-0.37373 0.11288,-0.8756 0.12019,-0.46633 0.13524,-0.81806 0.0518,-1.2117 -0.06786,-0.32045 -0.15517,-0.47083 -0.28183,-0.4857 -0.14323,-0.01702 -0.16985,0.09408 -0.16951,0.70842 0,0.29155 -0.0192,0.76739 -0.04275,1.0572 -0.03811,0.46614 -0.03616,0.55906 0.0175,0.8043 0.05615,0.25528 0.05659,0.29911 0.0041,0.55123 -0.18008,0.8721 -0.68241,1.7353 -1.0445,1.7951 -0.13412,0.02211 -0.16227,0.04995 -0.39672,0.38962 -0.43515,0.63052 -0.88651,1.0591 -1.3719,1.3025 -0.94042,0.4718 -2.4021,0.29427 -3.508,-0.42591 -0.47557,-0.30973 -1.1129,-0.98174 -1.0412,-1.0978 0.0395,-0.0639 0.20028,-0.04277 0.32069,0.0422 0.06259,0.04412 0.24848,0.19005 0.41313,0.32412 0.6548,0.53346 1.2819,0.80576 2.066,0.89686 0.94917,0.1104 1.7954,-0.2269 2.3791,-0.94836 0.2687,-0.33199 0.37842,-0.59343 0.57376,-1.365 0.23812,-0.94052 0.30586,-1.4223 0.30625,-2.1823 0,-0.87319 -0.11658,-1.4754 -0.44876,-2.3109 -0.38022,-0.9561 -1.0468,-1.5388 -2.0716,-1.8109 -0.33032,-0.08772 -0.41923,-0.09584 -1.0468,-0.09584 -0.62874,0 -0.71552,0.0076 -1.0438,0.09605 -0.19697,0.0527 -0.457,0.14229 -0.57768,0.19882 -0.25147,0.11776 -0.96742,0.59591 -1.5713,1.0496 -0.67096,0.50386 -1.3833,1.2569 -1.6073,1.6991 -0.15043,0.29677 -0.29454,0.98444 -0.35944,1.7155 -0.01237,0.13898 -0.03176,0.31534 -0.04309,0.39184 l -0.02066,0.13915 0.07666,-0.07659 c 0.04221,-0.04231 0.15072,-0.28362 0.24116,-0.53633 0.29624,-0.82783 0.60752,-1.393 1.0815,-1.9637 0.41048,-0.49433 1.1299,-1.056 1.6623,-1.2977 0.24053,-0.10922 0.25745,-0.11189 0.51927,-0.07805 0.19527,0.02527 0.43174,0.02091 0.84832,-0.01604 0.94005,-0.0827 1.5879,0.0097 2.3187,0.33109 0.35841,0.15757 0.47863,0.16684 0.47863,0.03675 0,-0.13344 -0.26821,-0.37694 -0.58567,-0.53174 -0.42956,-0.20954 -0.76527,-0.28462 -1.3635,-0.30543 -0.55259,-0.0192 -0.8423,0.0105 -1.3809,0.14146 -0.17381,0.04218 -0.32602,0.06689 -0.33814,0.05479 -0.05983,-0.05979 0.03497,-0.2103 0.19005,-0.30098 0.50899,-0.29838 1.5789,-0.37565 2.3954,-0.17316 0.59797,0.14839 1.1831,0.54297 1.3642,0.91976 0.14355,0.29872 0.17221,0.6645 0.0556,0.7092 -0.02777,0.0105 -0.11076,-0.02164 -0.18468,-0.07144 -0.07391,-0.04985 -0.21207,-0.10152 -0.30718,-0.11489 -0.09513,-0.01313 -0.36318,-0.07782 -0.59557,-0.1434 -0.5988,-0.16897 -0.89781,-0.21328 -1.4335,-0.21178 -0.80217,0.0039 -1.5492,0.11681 -1.954,0.29959 -0.79424,0.3587 -1.5869,1.2153 -1.9876,2.1476 -0.24388,0.56759 -0.31269,1.0489 -0.21131,1.4799 0.02815,0.1191 0.10109,0.48984 0.16246,0.8237 0.2985,1.6244 0.90063,2.7111 1.8561,3.3502 0.94538,0.63244 2.4847,1.1746 3.849,1.3559 0.9356,0.12435 2.2753,-0.05773 3.0785,-0.4185 0.69298,-0.31131 1.2036,-0.7845 2.0178,-1.8698 0.88245,-1.1762 1.4287,-2.5377 1.4488,-3.6104 0.0053,-0.29366 -0.0036,-0.34159 -0.06864,-0.40776 -0.07258,-0.0726 -0.07767,-0.07287 -0.15461,-0.01013 -0.06266,0.05115 -0.11764,0.22089 -0.25971,0.80076 -0.33085,1.3508 -0.75715,2.2288 -1.5726,3.239 -0.63657,0.78856 -1.3892,1.3068 -2.0376,1.403 -0.20672,0.03065 -0.44251,-0.05415 -0.42399,-0.15264 0.0153,-0.0807 0.3377,-0.25536 0.81697,-0.44232 0.46116,-0.18003 0.70796,-0.34527 1.0451,-0.70033 0.89015,-0.93726 1.479,-2.0681 1.8659,-3.583 0.07016,-0.27485 0.16022,-0.62036 0.19992,-0.76789 0.08585,-0.31889 0.09113,-0.60655 0.0192,-1.0175 -0.10569,-0.60274 -0.4343,-1.3762 -0.70635,-1.6622 -0.14032,-0.14751 -0.24858,-0.17408 -0.32621,-0.0805 -0.05659,0.06812 -0.01944,0.22072 0.21374,0.88072 0.22442,0.63477 0.30518,1.0859 0.28423,1.5881 -0.06246,1.5012 -1.0003,3.5079 -2.1434,4.586 -0.26739,0.25215 -0.45865,0.36016 -0.52299,0.29583 -0.06128,-0.06125 0.05101,-0.24454 0.42506,-0.69461 0.81354,-0.9788 1.2703,-1.794 1.6142,-2.88 0.32499,-1.0263 0.31024,-1.5291 -0.08509,-2.899 -0.07793,-0.27009 -0.15952,-0.61122 -0.18149,-0.758 -0.06975,-0.46709 -0.29597,-0.85017 -0.94603,-1.6025 -0.83014,-0.96076 -1.9028,-1.7158 -2.8606,-2.0136 -0.50165,-0.15585 -0.77623,-0.18796 -1.5881,-0.1848 -0.8629,0.0041 -1.3338,0.05654 -2.2238,0.25122 -0.62145,0.13589 -0.77732,0.14404 -0.83994,0.04406 -0.05357,-0.08561 0.02959,-0.1425 0.41072,-0.28214 0.6625,-0.24243 1.3852,-0.36872 2.4905,-0.43469 1.1962,-0.07153 1.6865,-0.0085 2.3823,0.30292 1.0067,0.45143 2.0883,1.3109 3.0974,2.4613 0.20896,0.23829 0.58426,0.63616 0.83394,0.88437 0.34665,0.34434 0.49202,0.51864 0.61465,0.73642 0.30953,0.54968 0.51856,1.1679 0.63565,1.8805 0.03964,0.24107 0.10308,0.45685 0.19102,0.64967 l 0.13166,0.28873 -0.0036,0.5053 c -0.0036,0.43938 -0.01823,0.5602 -0.11375,0.92503 -0.2645,1.0104 -0.71087,1.8565 -1.5351,2.9086 -0.18339,0.23409 -0.44924,0.58008 -0.59073,0.76889 -0.42783,0.57097 -0.8122,0.87394 -1.5644,1.2335 -1.1922,0.56985 -2.0492,0.63949 -3.466,0.28185 -0.80499,-0.20327 -1.3015,-0.36058 -1.9785,-0.62719 -1.294,-0.50947 -1.8994,-0.85194 -2.4818,-1.4032 -0.76522,-0.72441 -1.0668,-1.4626 -1.2737,-3.1174 -0.06699,-0.53556 -0.12194,-0.73358 -0.2119,-0.76296 -0.13572,-0.0442 0.08394,1.2091 0.35569,2.0292 0.45352,1.3687 1.218,2.3477 2.4109,3.0876 0.51042,0.31656 1.77,0.92396 2.1704,1.0466 0.20794,0.06369 0.61343,0.19462 0.90134,0.29096 0.9253,0.3097 1.5532,0.36809 2.2849,0.21231 v 0 c 0.42423,-0.09025 0.9261,-0.29612 1.4844,-0.60859 0.94798,-0.53062 1.3349,-0.83918 1.5869,-1.2654 0.09723,-0.16433 0.3556,-0.52749 0.57415,-0.80708 0.91905,-1.1752 1.4148,-2.1219 1.7032,-3.2521 0.2907,-1.1392 0.25694,-1.9992 -0.1276,-3.2468 -0.30764,-0.99822 -0.9892,-2.0334 -2.0915,-3.1764 -1.2174,-1.2624 -2.9806,-2.5295 -3.8965,-2.8001 -0.2581,-0.0762 -0.4702,-0.11555 -0.67882,-0.11864 z m -1.6198,2.035 c -0.47394,-0.0036 -0.97872,0.05119 -1.5114,0.15813 -0.96552,0.19389 -1.3617,0.35479 -1.7867,0.72594 -0.14887,0.12996 -0.5225,0.4291 -0.83019,0.66457 -0.66459,0.50872 -0.82173,0.65055 -0.95393,0.86067 -0.1294,0.20572 -0.31576,0.64233 -0.49336,1.1564 l -0.14231,0.41228 0.09828,-0.10544 c 0.05409,-0.05788 0.20111,-0.24124 0.32684,-0.40754 0.33805,-0.44711 0.62252,-0.75569 1.0024,-1.0876 0.35664,-0.31158 1.1141,-0.89273 1.4801,-1.1356 0.67906,-0.45046 1.4678,-0.68863 2.4179,-0.72964 1.2664,-0.05459 2.2835,0.3021 3.0514,1.0699 0.84412,0.84417 1.1214,1.8198 1.0703,3.7678 -0.02236,0.86077 -0.0654,1.154 -0.27215,1.8646 -0.14671,0.50401 -0.16922,0.66027 -0.11398,0.79359 0.0249,0.05979 0.05777,0.10876 0.07347,0.10876 0.0153,0 0.07326,-0.0528 0.12795,-0.11738 0.14166,-0.16701 0.42676,-0.7826 0.53908,-1.1641 0.0835,-0.28353 0.10002,-0.4281 0.13074,-1.1363 0.01944,-0.44635 0.03034,-1.2911 0.02431,-1.877 l -0.01125,-1.0654 -0.11251,-0.25852 c -0.17675,-0.40637 -0.42861,-0.75676 -0.84156,-1.1707 -0.39672,-0.39767 -0.74493,-0.65563 -1.1755,-0.87066 -0.60388,-0.30173 -1.3081,-0.45442 -2.098,-0.4568 z m -3.69,0.40284 c -0.05018,-0.0036 -0.11046,0.0069 -0.17478,0.02705 -0.27031,0.08774 -0.77706,0.36568 -0.93879,0.51465 -0.09061,0.0835 -0.24141,0.26537 -0.33498,0.40442 -0.21839,0.32414 -0.47392,0.77597 -0.43891,0.77597 0.01459,0 0.21632,-0.15213 0.44769,-0.3381 0.23132,-0.18582 0.6406,-0.48799 0.90945,-0.67143 0.50214,-0.34247 0.66946,-0.49669 0.66946,-0.61686 0,-0.05814 -0.05556,-0.09217 -0.13913,-0.09588 z"
         style="fill:#8f8f8f;fill-rule:evenodd;stroke-width:0.046802;stroke-linecap:round;stroke-linejoin:round;paint-order:stroke fill markers;stop-color:#000000"
         id="path2" />
    </g>
    <rect
       style="fill:none;stroke:#ffffff;stroke-width:0.523218;stop-color:#000000"
       id="rect540"
       width="149.47678"
       height="149.47678"
       x="41.611382"
       y="74.412971" />
  </g>
</svg>
