<?xml version="1.0" encoding="UTF-8" standalone="no"?>
<svg
   version="1.0"
   width="560pt"
   height="560pt"
   viewBox="0 0 560 560"
   preserveAspectRatio="xMidYMid meet"
   id="svg52"
   sodipodi:docname="Abnormal.svg"
   inkscape:version="1.1.2 (0a00cf5339, 2022-02-04)"
   xmlns:inkscape="http://www.inkscape.org/namespaces/inkscape"
   xmlns:sodipodi="http://sodipodi.sourceforge.net/DTD/sodipodi-0.dtd"
   xmlns="http://www.w3.org/2000/svg"
   xmlns:svg="http://www.w3.org/2000/svg"
   xmlns:rdf="http://www.w3.org/1999/02/22-rdf-syntax-ns#"
   xmlns:cc="http://creativecommons.org/ns#"
   xmlns:dc="http://purl.org/dc/elements/1.1/">
  <defs
     id="defs56" />
  <sodipodi:namedview
     id="namedview54"
     pagecolor="#505050"
     borderopacity="1"
     inkscape:pageshadow="0"
     inkscape:pageopacity="0"
     inkscape:pagecheckerboard="1"
     inkscape:document-units="pt"
     showgrid="false"
     inkscape:zoom="0.58875"
     inkscape:cx="569.00212"
     inkscape:cy="524.84076"
     inkscape:window-width="1920"
     inkscape:window-height="957"
     inkscape:window-x="0"
     inkscape:window-y="27"
     inkscape:window-maximized="1"
     inkscape:current-layer="svg52" />
  <metadata
     id="metadata2">
    <rdf:RDF>
      <cc:license
         rdf:resource="http://creativecommons.org/publicdomain/zero/1.0/deed.en" />
      <cc:permits
         rdf:resource="http://creativecommons.org/ns#Reproduction" />
      <rdf:Description
         about="https://nft.mir.one/fingerprints"
         dc:title="TON Fingerprints"
         dc:description="This is a unique digital fingerprint created based on the algorithm for generating basic rings using a noise texture. Like human fingerprints, you can now use it for the Web3 and Metaverse era as digital biometric information."
         dc:publisher="https://nft.mir.one"
         dc:date="2022-02-22"
         dc:format="image/svg+xml"
         dc:language="en">
        <dc:creator>
          <rdf:Bag>
            <rdf:li>EQBondcvD2_aOFADXSWJHs4ZazQDuEl9_wNvGGPxI8hGuOFU</rdf:li>
            <rdf:li>ipfs://bafkreihj7iub3fhmhq6jn62noukt5wxn3gv6bvcg7wmt6ywvlurefezckq</rdf:li>
          </rdf:Bag>
        </dc:creator>
      </rdf:Description>
    </rdf:RDF>
  </metadata>
  <g
     transform="matrix(0.1,0,0,-0.1,-218.97152,782.83035)"
     fill="#949494"
     stroke="none"
     id="g50">
    <path
       d="m 5184,7792 c 9,-14 126,-92 139,-92 5,0 2,9 -7,19 -19,21 -142,89 -132,73 z"
       id="path6" />
    <path
       d="m 4717,7747 c 54,-58 73,-89 73,-121 0,-28 6,-34 73,-68 39,-21 94,-56 122,-79 62,-51 82,-62 175,-89 86,-25 123,-49 264,-164 56,-46 178,-136 271,-201 348,-242 429,-310 567,-475 171,-205 301,-428 302,-519 1,-41 -2,-46 -23,-49 -32,-5 -68,32 -214,218 -266,341 -544,569 -907,744 -105,51 -105,51 -245,57 -139,5 -142,6 -320,67 -198,67 -329,97 -600,138 -259,38 -338,27 -563,-76 -105,-48 -105,-48 -41,-54 35,-3 150,-7 254,-10 211,-6 378,-23 595,-62 291,-53 440,-114 440,-181 0,-31 -21,-30 -202,7 -329,68 -571,93 -853,88 -190,-3 -190,-3 -275,-43 -47,-22 -114,-62 -150,-89 -36,-27 -82,-59 -102,-71 -38,-21 -38,-21 11,-34 47,-12 51,-11 88,13 57,37 103,43 388,50 292,8 456,-1 740,-40 220,-30 282,-28 360,12 50,25 61,26 128,21 41,-4 114,-16 163,-27 340,-78 577,-235 916,-606 79,-86 188,-196 243,-243 111,-97 149,-143 227,-275 81,-139 131,-200 197,-246 70,-47 76,-58 127,-235 69,-236 97,-468 74,-610 -14,-88 -42,-376 -38,-381 3,-2 22,110 44,249 35,227 39,269 38,427 -1,96 -9,247 -18,335 -9,88 -16,250 -17,360 -1,110 -5,214 -9,230 -7,26 -8,23 -9,-21 -2,-78 -31,-236 -50,-269 -22,-38 -57,-45 -71,-13 -19,44 -119,463 -139,583 -31,186 -99,352 -231,562 -151,239 -299,404 -420,467 -156,81 -287,179 -500,371 -47,42 -111,95 -144,117 -68,47 -258,119 -391,147 -51,12 -157,43 -236,71 -142,49 -142,49 -112,17 z m 440,-211 c 22,-19 25,-27 16,-37 -15,-15 -52,-5 -81,21 -45,42 17,57 65,16 z"
       id="path8" />
    <path
       d="m 5642,7645 c 48,-78 344,-387 417,-436 47,-30 101,-39 101,-16 0,36 -177,209 -375,365 -66,52 -135,109 -153,126 -33,31 -33,31 10,-39 z"
       id="path10" />
    <path
       d="m 4340,7625 c 63,-30 225,-73 307,-81 42,-5 69,-2 96,9 105,45 -23,83 -308,93 -150,5 -150,5 -95,-21 z"
       id="path12" />
    <path
       d="m 4180,7459 c -41,-4 -108,-15 -148,-23 -40,-9 -85,-16 -100,-16 -59,-1 87,-41 237,-65 384,-62 581,-110 856,-209 150,-54 214,-45 185,24 -19,46 -63,78 -195,140 -175,83 -171,82 -575,151 -63,10 -153,10 -260,-2 z"
       id="path14" />
    <path
       d="m 6560,6870 c 6,-11 13,-20 16,-20 2,0 0,9 -6,20 -6,11 -13,20 -16,20 -2,0 0,-9 6,-20 z"
       id="path16" />
    <path
       d="m 3457,6633 c -13,-13 -7,-37 19,-75 36,-51 27,-68 -35,-68 -101,0 -228,-72 -275,-157 -27,-48 -27,-48 1,-22 52,48 212,63 313,29 57,-19 64,-19 152,-5 51,8 156,15 233,15 140,0 140,0 157,29 26,47 71,64 179,69 157,7 398,-40 565,-109 113,-47 180,-102 292,-241 54,-68 134,-161 177,-208 231,-253 366,-436 501,-678 61,-110 79,-133 161,-209 110,-100 148,-166 162,-280 15,-117 -5,-221 -67,-365 -12,-26 -42,-119 -67,-205 -25,-87 -70,-219 -100,-293 -68,-171 -72,-200 -30,-200 99,0 213,167 290,425 19,66 55,179 80,250 69,204 96,480 59,606 -25,82 -85,196 -178,334 -189,280 -325,443 -612,735 -121,124 -228,239 -237,257 -22,42 -22,89 0,97 35,14 210,-99 377,-242 187,-161 467,-473 626,-697 102,-144 147,-220 221,-368 34,-67 87,-158 119,-202 72,-101 86,-128 107,-212 24,-95 23,-329 0,-443 -24,-114 -107,-360 -162,-476 -112,-241 -220,-369 -500,-593 -223,-179 -388,-285 -497,-320 -30,-10 -46,-10 -74,-1 -47,16 -105,0 -133,-36 -36,-46 -14,-52 112,-28 45,8 50,-10 13,-45 -33,-31 -88,-38 -135,-16 -36,16 -44,16 -107,2 -184,-41 -295,-52 -549,-51 -274,1 -392,15 -565,69 -90,29 -338,139 -405,181 -40,25 -39,24 10,-21 69,-64 272,-198 373,-247 259,-123 573,-177 872,-149 168,16 430,59 510,83 168,52 364,177 656,417 95,79 181,142 229,166 112,57 188,157 315,416 200,411 288,920 211,1234 -47,193 -108,321 -264,554 -151,227 -199,288 -384,491 -294,322 -492,497 -663,589 -113,60 -174,73 -300,65 -86,-5 -124,-2 -210,15 -189,38 -532,91 -667,103 -100,8 -164,9 -270,0 -208,-18 -356,-15 -444,7 -95,24 -154,32 -162,24 z"
       id="path18" />
    <path
       d="m 4053,6343 c -39,-5 -43,-28 -13,-61 34,-37 90,-59 266,-107 164,-45 272,-84 442,-160 102,-45 126,-44 130,7 3,33 -3,44 -44,88 -77,82 -188,136 -381,184 -162,40 -324,60 -400,49 z"
       id="path20" />
    <path
       d="m 3373,6256 c -23,-7 -58,-23 -77,-35 -33,-21 -269,-262 -262,-268 8,-8 97,32 232,104 162,86 238,146 232,185 -2,19 -9,23 -43,25 -22,1 -59,-4 -82,-11 z"
       id="path22" />
    <path
       d="m 3706,6135 c -58,-15 -332,-147 -467,-226 -37,-21 -88,-62 -114,-91 -42,-46 -137,-170 -158,-205 -11,-18 55,11 151,68 164,97 340,178 512,235 80,27 95,28 260,28 159,1 185,-2 290,-28 161,-40 297,-89 425,-152 136,-67 229,-136 293,-217 57,-73 195,-271 238,-342 78,-129 134,-316 134,-444 0,-25 -9,-89 -21,-141 -18,-88 -19,-106 -8,-239 14,-176 7,-313 -21,-405 -23,-74 -67,-130 -97,-124 -16,3 -18,19 -19,163 -2,250 -41,365 -168,490 -182,179 -358,261 -550,253 -87,-3 -95,-5 -162,-45 -38,-24 -125,-65 -193,-93 -207,-83 -326,-157 -438,-271 -84,-86 -127,-147 -179,-254 -129,-270 -101,-526 90,-819 64,-99 175,-219 266,-288 185,-141 436,-208 776,-208 314,0 493,26 677,99 67,27 161,63 209,81 145,54 299,154 493,321 254,217 378,390 478,670 19,52 49,120 65,150 46,81 62,156 62,289 -1,237 -40,377 -103,368 -43,-6 -58,-63 -64,-238 -6,-147 -4,-163 16,-209 32,-76 25,-152 -13,-138 -18,7 -20,11 -36,75 -8,31 -16,42 -30,42 -33,0 -51,-44 -66,-157 -17,-129 -42,-209 -100,-324 -63,-122 -131,-199 -322,-362 -279,-239 -402,-320 -600,-398 -142,-55 -196,-64 -308,-48 -80,11 -103,10 -190,-6 -146,-26 -406,-31 -517,-11 -305,58 -545,233 -658,482 -41,91 -59,175 -59,284 0,122 19,202 76,319 39,80 60,108 138,186 128,129 275,210 483,267 114,31 265,31 355,0 127,-44 242,-135 317,-252 41,-63 66,-126 107,-270 14,-52 38,-117 51,-145 36,-69 28,-130 -31,-265 -79,-179 -53,-225 78,-139 88,59 251,275 305,406 62,150 78,256 91,601 5,141 16,304 25,362 29,210 16,319 -57,465 -99,197 -319,466 -472,577 -33,24 -48,28 -105,28 -75,0 -133,15 -341,90 -80,28 -235,76 -345,106 -229,63 -343,76 -449,49 z"
       id="path24" />
    <path
       d="m 3755,5803 c -139,-22 -312,-84 -498,-180 -146,-75 -177,-105 -279,-264 -71,-110 -65,-110 107,1 215,139 423,231 615,270 150,31 378,25 530,-15 176,-46 300,-115 275,-155 -11,-17 -82,-11 -219,20 -181,41 -246,50 -357,50 -236,0 -508,-90 -761,-252 -94,-60 -121,-93 -201,-246 -63,-118 -63,-118 -29,-98 18,12 61,45 95,74 187,160 420,285 654,349 86,24 116,27 243,27 135,0 153,-2 255,-32 103,-31 119,-33 245,-31 74,1 164,1 200,0 168,-5 178,73 29,220 -125,123 -236,181 -452,235 -84,21 -131,26 -262,29 -88,2 -173,1 -190,-2 z"
       id="path26" />
    <path
       d="m 7011,5794 c 0,-11 3,-14 6,-6 3,7 2,16 -1,19 -3,4 -6,-2 -5,-13 z"
       id="path28" />
    <path
       d="m 3865,5280 c -248,-35 -517,-159 -732,-338 -68,-57 -106,-122 -163,-278 -27,-76 -33,-101 -21,-92 9,7 75,72 146,143 72,72 167,156 211,188 197,139 422,229 664,267 99,15 138,28 149,49 20,37 -22,60 -121,65 -40,3 -100,1 -133,-4 z"
       id="path30" />
    <path
       d="m 4162,5130 c -40,-16 -144,-48 -230,-69 -256,-64 -441,-152 -618,-295 -197,-159 -252,-251 -290,-490 -8,-50 -17,-100 -20,-111 -9,-29 45,48 89,127 181,326 526,577 897,653 72,15 118,17 295,12 358,-10 458,-47 663,-242 103,-97 135,-115 165,-88 16,15 19,27 14,82 -11,141 -157,355 -285,418 -57,28 -57,28 -332,31 -275,2 -275,2 -348,-28 z"
       id="path32" />
    <path
       d="m 5665,4866 c -59,-62 -69,-124 -71,-426 -1,-246 -3,-274 -28,-395 -33,-159 -86,-322 -128,-390 -83,-135 -216,-263 -362,-347 -110,-63 -148,-91 -168,-123 -25,-41 -23,-63 7,-77 58,-26 264,56 437,174 109,74 269,232 316,311 33,54 33,58 23,108 -13,60 -6,112 39,284 66,253 73,340 34,460 -36,111 -43,247 -19,350 18,76 18,78 0,91 -29,21 -45,17 -80,-20 z"
       id="path34" />
    <path
       d="m 5811,4861 c -11,-7 -11,-25 3,-117 8,-60 18,-139 22,-176 7,-80 31,-120 61,-102 34,21 48,65 48,154 0,107 -23,177 -71,220 -38,33 -42,34 -63,21 z"
       id="path36" />
    <path
       d="m 4005,4845 c -271,-60 -554,-244 -717,-466 -117,-160 -138,-222 -138,-419 0,-105 30,-363 44,-377 2,-2 6,48 10,110 9,151 21,225 52,322 54,163 140,300 267,422 137,131 281,214 519,297 108,38 145,63 134,91 -13,35 -73,42 -171,20 z"
       id="path38" />
    <path
       d="m 4165,4385 c -86,-16 -137,-34 -223,-80 -218,-114 -342,-312 -342,-543 0,-167 57,-300 182,-424 65,-65 95,-86 181,-127 126,-61 213,-81 355,-81 226,0 380,71 480,223 22,33 27,57 36,165 18,215 14,345 -13,432 -73,238 -223,394 -418,435 -82,18 -145,18 -238,0 z m 160,-170 c 84,-22 150,-61 205,-122 172,-188 170,-502 -5,-662 -71,-64 -144,-92 -255,-99 -105,-5 -176,9 -266,52 -294,142 -354,500 -119,714 121,111 290,156 440,117 z"
       id="path40" />
    <path
       d="m 4091,4085 c -70,-20 -111,-46 -160,-101 -128,-146 -77,-363 104,-446 42,-19 66,-23 155,-23 154,1 224,36 278,140 51,100 29,242 -54,334 -82,91 -207,128 -323,96 z m 161,-176 c 60,-43 86,-145 53,-209 -26,-50 -68,-44 -80,12 -13,60 -42,105 -76,117 -41,14 -73,-1 -65,-32 11,-44 -36,-63 -69,-27 -22,24 -16,92 12,122 53,59 154,67 225,17 z"
       id="path42" />
    <path
       d="m 6972,4080 c 0,-14 2,-19 5,-12 2,6 2,18 0,25 -3,6 -5,1 -5,-13 z"
       id="path44" />
    <path
       d="m 6343,3039 c -12,-4 -85,-69 -163,-143 -233,-224 -418,-361 -568,-422 -55,-22 -249,-69 -447,-108 -144,-28 -265,-37 -545,-38 -275,0 -275,0 -185,-19 242,-49 559,-61 730,-29 177,34 454,104 510,129 122,56 296,178 433,304 203,187 329,363 235,326 z"
       id="path46" />
    <path
       d="m 3575,2930 c 10,-11 20,-20 23,-20 3,0 -3,9 -13,20 -10,11 -20,20 -23,20 -3,0 3,-9 13,-20 z"
       id="path48" />
  </g>
</svg>
